<?xml version="1.0" encoding="UTF-8" standalone="no"?>
<!-- Created with Inkscape (http://www.inkscape.org/) -->

<svg
   version="1.1"
   id="svg2448"
   width="811.64197"
   height="631.91669"
   viewBox="0 0 811.64197 631.91669"
   xmlns="http://www.w3.org/2000/svg"
   xmlns:svg="http://www.w3.org/2000/svg">
  <defs
     id="defs2452">
    <clipPath
       clipPathUnits="userSpaceOnUse"
       id="clipPath2512">
      <path
         d="M 0,0 H 720 V 540 H 0 Z"
         id="path2510" />
    </clipPath>
    <clipPath
       clipPathUnits="userSpaceOnUse"
       id="clipPath2536">
      <path
         d="M 0,0 H 720 V 540 H 0 Z"
         id="path2534" />
    </clipPath>
  </defs>
  <g
     id="g2456"
     transform="matrix(1.3333333,0,0,-1.3333333,-79.039998,665.9053)">
    <text
       xml:space="preserve"
       transform="matrix(1,0,0,-1,187.328,473.22)"
       style="font-variant:normal;font-weight:bold;font-stretch:normal;font-size:36px;font-family:Arial;-inkscape-font-specification:Arial-BoldMT;writing-mode:lr-tb;fill:#fc0128;fill-opacity:1;fill-rule:nonzero;stroke:none"
       id="text2462"><tspan
         x="0 26.028 40.068001 60.119999 82.152 102.204 124.236 134.136 156.168 176.22 190.25999 212.29201 232.34399 244.368 254.243 280.271 302.30301 314.327 326.35101 346.40302"
         y="0"
         id="tspan2460">Branch Target Buffer</tspan></text>
    <path
       d="m 210.03,317.97 h 192 v -180 h -192 z"
       style="fill:#9ae69a;fill-opacity:1;fill-rule:evenodd;stroke:#000000;stroke-width:1.5;stroke-linecap:butt;stroke-linejoin:miter;stroke-miterlimit:8;stroke-dasharray:none;stroke-opacity:1"
       id="path2464" />
    <path
       d="m 402.03,317.97 h 192 v -180 h -192 z"
       style="fill:#33cc33;fill-opacity:1;fill-rule:evenodd;stroke:#000000;stroke-width:1.5;stroke-linecap:butt;stroke-linejoin:miter;stroke-miterlimit:8;stroke-dasharray:none;stroke-opacity:1"
       id="path2466" />
    <path
       d="m 594.03,317.97 h 36 v -180 h -36 z"
       style="fill:#9ae69a;fill-opacity:1;fill-rule:evenodd;stroke:#000000;stroke-width:1.5;stroke-linecap:butt;stroke-linejoin:miter;stroke-miterlimit:8;stroke-dasharray:none;stroke-opacity:1"
       id="path2468" />
    <g
       id="g2470"
       transform="translate(210.03,299.97)">
      <path
         d="M 0,0 H 420"
         style="fill:none;stroke:#000000;stroke-width:1.5;stroke-linecap:butt;stroke-linejoin:round;stroke-miterlimit:10;stroke-dasharray:none;stroke-opacity:1"
         id="path2472" />
    </g>
    <g
       id="g2474"
       transform="translate(210.03,281.97)">
      <path
         d="M 0,0 H 420"
         style="fill:none;stroke:#000000;stroke-width:1.5;stroke-linecap:butt;stroke-linejoin:round;stroke-miterlimit:10;stroke-dasharray:none;stroke-opacity:1"
         id="path2476" />
    </g>
    <g
       id="g2478"
       transform="translate(210.03,263.97)">
      <path
         d="M 0,0 H 420"
         style="fill:none;stroke:#000000;stroke-width:1.5;stroke-linecap:butt;stroke-linejoin:round;stroke-miterlimit:10;stroke-dasharray:none;stroke-opacity:1"
         id="path2480" />
    </g>
    <g
       id="g2482"
       transform="translate(210.03,245.97)">
      <path
         d="M 0,0 H 420"
         style="fill:none;stroke:#000000;stroke-width:1.5;stroke-linecap:butt;stroke-linejoin:round;stroke-miterlimit:10;stroke-dasharray:none;stroke-opacity:1"
         id="path2484" />
    </g>
    <g
       id="g2486"
       transform="translate(210.03,227.97)">
      <path
         d="M 0,0 H 420"
         style="fill:none;stroke:#000000;stroke-width:1.5;stroke-linecap:butt;stroke-linejoin:round;stroke-miterlimit:10;stroke-dasharray:none;stroke-opacity:1"
         id="path2488" />
    </g>
    <g
       id="g2490"
       transform="translate(210.03,209.97)">
      <path
         d="M 0,0 H 420"
         style="fill:none;stroke:#000000;stroke-width:1.5;stroke-linecap:butt;stroke-linejoin:round;stroke-miterlimit:10;stroke-dasharray:none;stroke-opacity:1"
         id="path2492" />
    </g>
    <g
       id="g2494"
       transform="translate(210.03,191.97)">
      <path
         d="M 0,0 H 420"
         style="fill:none;stroke:#000000;stroke-width:1.5;stroke-linecap:butt;stroke-linejoin:round;stroke-miterlimit:10;stroke-dasharray:none;stroke-opacity:1"
         id="path2496" />
    </g>
    <g
       id="g2498"
       transform="translate(210.03,173.97)">
      <path
         d="M 0,0 H 420"
         style="fill:none;stroke:#000000;stroke-width:1.5;stroke-linecap:butt;stroke-linejoin:round;stroke-miterlimit:10;stroke-dasharray:none;stroke-opacity:1"
         id="path2500" />
    </g>
    <g
       id="g2502"
       transform="translate(210.03,155.97)">
      <path
         d="M 0,0 H 420"
         style="fill:none;stroke:#000000;stroke-width:1.5;stroke-linecap:butt;stroke-linejoin:round;stroke-miterlimit:10;stroke-dasharray:none;stroke-opacity:1"
         id="path2504" />
    </g>
    <g
       id="g2506">
      <g
         id="g2508"
         clip-path="url(#clipPath2512)">
        <g
           id="g2514"
           transform="translate(204.03,137.97)">
          <path
             d="m 0,0 c -11.598,0 -21,6.716 -21,15 v 60 c 0,8.284 -9.402,15 -21,15 11.598,0 21,6.716 21,15 v 60 c 0,8.284 9.402,15 21,15"
             style="fill:none;stroke:#000000;stroke-width:1.5;stroke-linecap:butt;stroke-linejoin:round;stroke-miterlimit:10;stroke-dasharray:none;stroke-opacity:1"
             id="path2516" />
        </g>
      </g>
    </g>
    <path
       d="m 210.03,395.97 h 192 v -36 h -192 z"
       style="fill:#9ae69a;fill-opacity:1;fill-rule:evenodd;stroke:#000000;stroke-width:1.5;stroke-linecap:butt;stroke-linejoin:miter;stroke-miterlimit:8;stroke-dasharray:none;stroke-opacity:1"
       id="path2518" />
    <text
       xml:space="preserve"
       transform="matrix(1,0,0,-1,215.03,371.4)"
       style="font-variant:normal;font-weight:normal;font-stretch:normal;font-size:18px;font-family:'Times New Roman';-inkscape-font-specification:TimesNewRomanPSMT;writing-mode:lr-tb;fill:#000000;fill-opacity:1;fill-rule:nonzero;stroke:none"
       id="text2528"><tspan
         x="0 10.0206 22.0266 26.5266 35.5266 41.520599 46.020599 50.999401 59.999401 67.019402 72 77.994003 86.994003 94.975197 99.954002 104.9346 113.9346 122.9346 127.494 132.47459 141.47459 145.97459 151.9686 159.9498 164.9286 172.90981"
         y="0"
         id="tspan2520">PC of instruction to fetch</tspan><tspan
         x="-129.834 -116.8146 -107.8146 -93.834 -84.834 -76.854599 -70.860603"
         y="128.394"
         id="tspan2522">Number </tspan><tspan
         x="-129.834 -120.834 -114.84 -110.34 -102.3588 -93.358803 -88.379997 -82.386002 -77.407204 -69.426003 -62.405998"
         y="149.994"
         id="tspan2524">of entries </tspan><tspan
         x="-129.834 -124.848 -115.848 -111.348 -99.347397 -88.367401"
         y="171.59399"
         id="tspan2526">in BTB</tspan></text>
    <g
       id="g2530">
      <g
         id="g2532"
         clip-path="url(#clipPath2536)">
        <g
           id="g2538"
           transform="translate(276.03,89.97)">
          <path
             d="M 0,0 C 0,9.941 9.402,18 21,18 32.598,18 42,9.941 42,0 42,-9.941 32.598,-18 21,-18 9.402,-18 0,-9.941 0,0"
             style="fill:#ffffff;fill-opacity:1;fill-rule:evenodd;stroke:none"
             id="path2540" />
        </g>
        <g
           id="g2542"
           transform="translate(276.03,89.97)">
          <path
             d="M 0,0 C 0,9.941 9.402,18 21,18 32.598,18 42,9.941 42,0 42,-9.941 32.598,-18 21,-18 9.402,-18 0,-9.941 0,0 Z"
             style="fill:none;stroke:#000000;stroke-width:1.5;stroke-linecap:butt;stroke-linejoin:round;stroke-miterlimit:10;stroke-dasharray:none;stroke-opacity:1"
             id="path2544" />
        </g>
      </g>
    </g>
    <text
       xml:space="preserve"
       transform="matrix(1,0,0,-1,289.2,81.24)"
       style="font-variant:normal;font-weight:normal;font-stretch:normal;font-size:24px;font-family:'Times New Roman';-inkscape-font-specification:TimesNewRomanPSMT;writing-mode:lr-tb;fill:#000000;fill-opacity:1;fill-rule:nonzero;stroke:none"
       id="text2548"><tspan
         x="0"
         y="0"
         id="tspan2546">=</tspan></text>
    <g
       id="g2550"
       transform="translate(300.03,137.97)">
      <path
         d="M 0,0 V -25"
         style="fill:none;stroke:#000000;stroke-width:1.5;stroke-linecap:butt;stroke-linejoin:round;stroke-miterlimit:10;stroke-dasharray:none;stroke-opacity:1"
         id="path2552" />
    </g>
    <g
       id="g2554"
       transform="translate(303.0303,113.9699)">
      <path
         d="M 0,0 -3,-6 -6,0 Z"
         style="fill:#000000;fill-opacity:1;fill-rule:evenodd;stroke:none"
         id="path2556" />
    </g>
    <g
       id="g2558"
       transform="translate(60.03,89.97)">
      <path
         d="M 0,0 H 211"
         style="fill:none;stroke:#000000;stroke-width:1.5;stroke-linecap:butt;stroke-linejoin:round;stroke-miterlimit:10;stroke-dasharray:none;stroke-opacity:1"
         id="path2560" />
    </g>
    <g
       id="g2562"
       transform="translate(270.0301,92.9702)">
      <path
         d="M 0,0 6,-3 0,-6 Z"
         style="fill:#000000;fill-opacity:1;fill-rule:evenodd;stroke:none"
         id="path2564" />
    </g>
    <g
       id="g2566"
       transform="translate(60.03,89.97)">
      <path
         d="M 0,0 V 282"
         style="fill:none;stroke:#000000;stroke-width:1.5;stroke-linecap:butt;stroke-linejoin:round;stroke-miterlimit:10;stroke-dasharray:none;stroke-opacity:1"
         id="path2568" />
    </g>
    <g
       id="g2570"
       transform="translate(60.03,371.97)">
      <path
         d="M 0,0 H 150"
         style="fill:none;stroke:#000000;stroke-width:1.5;stroke-linecap:butt;stroke-linejoin:round;stroke-miterlimit:10;stroke-dasharray:none;stroke-opacity:1"
         id="path2572" />
    </g>
    <g
       id="g2574"
       transform="translate(318.03,89.97)">
      <path
         d="M 0,0 H 37"
         style="fill:none;stroke:#000000;stroke-width:1.5;stroke-linecap:butt;stroke-linejoin:round;stroke-miterlimit:10;stroke-dasharray:none;stroke-opacity:1"
         id="path2576" />
    </g>
    <g
       id="g2578"
       transform="translate(354.0302,92.9702)">
      <path
         d="M 0,0 6,-3 0,-6 Z"
         style="fill:#000000;fill-opacity:1;fill-rule:evenodd;stroke:none"
         id="path2580" />
    </g>
    <g
       id="g2582"
       transform="translate(300.03,71.97)">
      <path
         d="M 0,0 V -19"
         style="fill:none;stroke:#000000;stroke-width:1.5;stroke-linecap:butt;stroke-linejoin:round;stroke-miterlimit:10;stroke-dasharray:none;stroke-opacity:1"
         id="path2584" />
    </g>
    <g
       id="g2586"
       transform="translate(303.0303,53.9699)">
      <path
         d="M 0,0 -3,-6 -6,0 Z"
         style="fill:#000000;fill-opacity:1;fill-rule:evenodd;stroke:none"
         id="path2588" />
    </g>
    <text
       xml:space="preserve"
       transform="matrix(1,0,0,-1,367.2,94.92)"
       style="font-variant:normal;font-weight:normal;font-stretch:normal;font-size:16.02px;font-family:'Times New Roman';-inkscape-font-specification:TimesNewRomanPSMT;writing-mode:lr-tb;fill:#000000;fill-opacity:1;fill-rule:nonzero;stroke:none"
       id="text2598"><tspan
         x="0 5.3394661 13.381506 19.621296 24.06204 29.401506 37.443546 44.588467 49.027607 53.468353 61.510391 69.552429 73.637535 78.078278 84.318069 88.403168 96.445206 104.48724 108.92799"
         y="0"
         id="tspan2590">Instruction is not </tspan><tspan
         x="112.8609 120.90294 126.24241 133.38733 141.42937 145.86852 153.01343 157.45418 164.59909"
         y="0"
         id="tspan2592">predicted</tspan><tspan
         x="176.63652 181.07567 189.11771 193.13872 201.18076 208.32568"
         y="0"
         id="tspan2594">to be </tspan><tspan
         x="0 7.1449199 11.10186 19.1439 24.483366 31.628286 39.670326 46.815247 54.857285"
         y="19.191959"
         id="tspan2596">a branch.</tspan></text>
    <text
       xml:space="preserve"
       transform="matrix(1,0,0,-1,331.20306,94.92)"
       style="font-variant:normal;font-weight:bold;font-stretch:normal;font-size:16.02px;font-family:'Times New Roman';-inkscape-font-specification:TimesNewRomanPS-BoldMT;writing-mode:lr-tb;fill:#fc0128;fill-opacity:1;fill-rule:nonzero;stroke:none"
       id="text2604"><tspan
         x="0 11.58246"
         y="0"
         id="tspan2600">No</tspan><tspan
         x="-23.997959 -14.22576 -7.0856462"
         y="42.00444"
         id="tspan2602">Yes</tspan></text>
    <text
       xml:space="preserve"
       transform="matrix(1,0,0,-1,185.99778,28.9176)"
       style="font-variant:normal;font-weight:normal;font-stretch:normal;font-size:16.02px;font-family:'Times New Roman';-inkscape-font-specification:TimesNewRomanPSMT;writing-mode:lr-tb;fill:#000000;fill-opacity:1;fill-rule:nonzero;stroke:none"
       id="text2608"><tspan
         x="0 5.3394661 13.381506 19.621296 24.06204 29.401506 37.443546 44.588467 49.027607 53.468353 61.510391 69.552429 73.632729 78.073471 84.313263 88.393555 95.538475 99.498619 107.54066 112.88173 120.02665 128.06868 135.21361 143.25565 147.15491 154.29984 162.34187 170.38391 174.28319 182.32523 187.66469 194.8096 202.85165 207.29079 214.43571 218.87645 226.02138"
         y="0"
         id="tspan2606">Instruction is a branch and predicted</tspan></text>
    <text
       xml:space="preserve"
       transform="matrix(1,0,0,-1,450.71,339)"
       style="font-variant:normal;font-weight:normal;font-stretch:normal;font-size:18px;font-family:'Times New Roman';-inkscape-font-specification:TimesNewRomanPSMT;writing-mode:lr-tb;fill:#000000;fill-opacity:1;fill-rule:nonzero;stroke:none"
       id="text2616"><tspan
         x="0 10.0206 16.014601 23.993999 32.993999 37.974602 45.953999 50.934601 58.914001 67.914001 72.468002 82.486801"
         y="0"
         id="tspan2610">Predicted PC</tspan><tspan
         x="144.48599 155.466 160.452 173.47141 184.1526"
         y="-5.994"
         id="tspan2612">T/NT </tspan><tspan
         x="144.48599 153.48599 159.48 167.4612 176.4612 181.44 189.4212 194.39999 199.3806 208.3806"
         y="15.606"
         id="tspan2614">prediction</tspan></text>
    <g
       id="g2618"
       transform="translate(300.03,359.97)">
      <path
         d="M 0,0 V -37"
         style="fill:none;stroke:#000000;stroke-width:1.5;stroke-linecap:butt;stroke-linejoin:round;stroke-miterlimit:10;stroke-dasharray:none;stroke-opacity:1"
         id="path2620" />
    </g>
    <g
       id="g2622"
       transform="translate(303.0303,323.9699)">
      <path
         d="M 0,0 -3,-6 -6,0 Z"
         style="fill:#000000;fill-opacity:1;fill-rule:evenodd;stroke:none"
         id="path2624" />
    </g>
  </g>
</svg>
